# xmcd
#
# Track frame offsets: 
#        150
#        24007
#        39078
#        56695
#        97904
#        136510
#        155715
#        174857
#
# Disc length: 2556 seconds
#
# Revision: 1
# Processed by: cddbd v1.5.2PL0 Copyright (c) Steve Scherf et al.
# Submitted via: ExactAudioCopyFreeDBPlugin 1.0
#
DISCID=4c09fa08
DTITLE=Rhythm Machine - Rhythm Machine
DYEAR=1976
DGENRE=Funk
TTITLE0=You Got Action, You Got Me
TTITLE1=Lil's Place
TTITLE2=Put A Smile On Time
TTITLE3=Thought My Love Was Fine
TTITLE4=Brenda And Me
TTITLE5=Everybody's Chippin
TTITLE6=You Make Me Feel Right, Think Right, Do Right
TTITLE7=Can't Do Without You
EXTD=
EXTT0=
EXTT1=
EXTT2=
EXTT3=
EXTT4=
EXTT5=
EXTT6=
EXTT7=
PLAYORDER=
